# xmcd
#
# Track frame offsets: 
#        150
#        12564
#        23671
#        36292
#        50501
#        64157
#        80899
#        94759
#        108849
#        119842
#        131946
#        145435
#        156795
#        172847
#        184084
#        197738
#        212653
#        233219
#        248110
#        261159
#        272802
#        285627
#        296047
#
# Disc length: 4107 seconds
#
# Revision: 2
# Processed by: cddbd v1.5.2PL0 Copyright (c) Steve Scherf et al.
# Submitted via: ExactAudioCopy v1.1
#
DISCID=63100917
DTITLE=The Five Stairsteps - Our Family Portrait - Stairsteps
DYEAR=2014
DGENRE=R&B
TTITLE0=A Million To One (stereo)
TTITLE1=You Make Me So Mad (stereo)
TTITLE2=Something's Missing (stereo)
TTITLE3=The Look Of Love (stereo)
TTITLE4=New Dance Crraze (stereo)
TTITLE5=Windows Of The World (stereo)
TTITLE6=Bad News (stereo)
TTITLE7=Tell Me Who (stereo)
TTITLE8=Under The Spell (stereo)
TTITLE9=Find Me (stereo)
TTITLE10=I Remember You (stereo)
TTITLE11=Getting Better
TTITLE12=Dear Prudence
TTITLE13=Sweet As A Peach
TTITLE14=Vice The Lights
TTITLE15=O-O-H Child
TTITLE16=Because I Love You
TTITLE17=What About Your Wife
TTITLE18=Up and Down
TTITLE19=Who Do You Belong To
TTITLE20=Madame Mary (stereo)
TTITLE21=The Shadow Of Your Love
TTITLE22=America - Standing
EXTD=
EXTT0=
EXTT1=
EXTT2=
EXTT3=
EXTT4=
EXTT5=
EXTT6=
EXTT7=
EXTT8=
EXTT9=
EXTT10=
EXTT11=
EXTT12=
EXTT13=
EXTT14=
EXTT15=
EXTT16=
EXTT17=
EXTT18=
EXTT19=
EXTT20=
EXTT21=
EXTT22=
PLAYORDER=
